<mxfile host="65bd71144e">
    <diagram id="x5uABzMgEr3qooqsPCjS" name="Page-1">
        <mxGraphModel dx="1980" dy="779" grid="1" gridSize="10" guides="1" tooltips="1" connect="1" arrows="1" fold="1" page="1" pageScale="1" pageWidth="850" pageHeight="1100" math="0" shadow="0">
            <root>
                <mxCell id="0"/>
                <mxCell id="1" parent="0"/>
                <mxCell id="2" value="" style="rounded=0;whiteSpace=wrap;html=1;fillColor=#60a917;fontColor=#ffffff;strokeColor=#2D7600;" parent="1" vertex="1">
                    <mxGeometry x="-40" y="20" width="910" height="1400" as="geometry"/>
                </mxCell>
                <mxCell id="4" value="NAVBAR" style="rounded=0;whiteSpace=wrap;html=1;fillColor=#fa6800;fontColor=#000000;strokeColor=#C73500;" parent="1" vertex="1">
                    <mxGeometry x="320" y="50" width="180" height="60" as="geometry"/>
                </mxCell>
                <mxCell id="27" value="" style="line;strokeWidth=2;html=1;rotation=90;fillColor=#eeeeee;strokeColor=#36393d;" parent="1" vertex="1">
                    <mxGeometry x="374.05" y="139.7" width="71.88" height="10" as="geometry"/>
                </mxCell>
                <mxCell id="28" value="&lt;h1&gt;&lt;font style=&quot;font-size: 39px; font-weight: normal;&quot;&gt;heading&lt;/font&gt;&lt;/h1&gt;" style="rounded=0;whiteSpace=wrap;html=1;fillColor=#008a00;strokeColor=#005700;fontColor=#ffffff;" parent="1" vertex="1">
                    <mxGeometry x="310" y="180" width="200" height="80" as="geometry"/>
                </mxCell>
                <mxCell id="33" style="edgeStyle=none;html=1;" parent="1" source="29" target="32" edge="1">
                    <mxGeometry relative="1" as="geometry"/>
                </mxCell>
                <mxCell id="29" value="" style="line;strokeWidth=2;html=1;rotation=90;" parent="1" vertex="1">
                    <mxGeometry x="374.06" y="290" width="71.88" height="10" as="geometry"/>
                </mxCell>
                <mxCell id="31" value="" style="line;strokeWidth=2;html=1;rotation=90;" parent="1" vertex="1">
                    <mxGeometry x="374.05" y="139.7" width="71.88" height="10" as="geometry"/>
                </mxCell>
                <mxCell id="32" value="&lt;font color=&quot;#000000&quot; style=&quot;font-size: 36px;&quot;&gt;Text 1&lt;/font&gt;" style="rounded=0;whiteSpace=wrap;html=1;fillColor=#fff2cc;strokeColor=#d6b656;" parent="1" vertex="1">
                    <mxGeometry x="310.01" y="330" width="200" height="80" as="geometry"/>
                </mxCell>
                <mxCell id="34" value="" style="shape=curlyBracket;whiteSpace=wrap;html=1;rounded=1;flipH=1;labelPosition=right;verticalLabelPosition=middle;align=left;verticalAlign=middle;rotation=-90;" parent="1" vertex="1">
                    <mxGeometry x="344.05" y="116.88" width="138.13" height="720" as="geometry"/>
                </mxCell>
                <mxCell id="36" value="img 1" style="whiteSpace=wrap;html=1;aspect=fixed;" parent="1" vertex="1">
                    <mxGeometry x="-10" y="540" width="150" height="150" as="geometry"/>
                </mxCell>
                <mxCell id="37" value="img 2" style="whiteSpace=wrap;html=1;aspect=fixed;" parent="1" vertex="1">
                    <mxGeometry x="210.00000000000003" y="540" width="150" height="150" as="geometry"/>
                </mxCell>
                <mxCell id="38" value="img 3" style="whiteSpace=wrap;html=1;aspect=fixed;" parent="1" vertex="1">
                    <mxGeometry x="450" y="540" width="150" height="150" as="geometry"/>
                </mxCell>
                <mxCell id="39" value="img 4" style="whiteSpace=wrap;html=1;aspect=fixed;" parent="1" vertex="1">
                    <mxGeometry x="700" y="540" width="150" height="150" as="geometry"/>
                </mxCell>
                <mxCell id="40" value="" style="shape=crossbar;whiteSpace=wrap;html=1;rounded=1;" parent="1" vertex="1">
                    <mxGeometry x="360" y="605" width="90" height="20" as="geometry"/>
                </mxCell>
                <mxCell id="44" style="edgeStyle=none;html=1;entryX=1;entryY=0.5;entryDx=0;entryDy=0;" parent="1" source="41" target="38" edge="1">
                    <mxGeometry relative="1" as="geometry"/>
                </mxCell>
                <mxCell id="41" value="" style="shape=crossbar;whiteSpace=wrap;html=1;rounded=1;" parent="1" vertex="1">
                    <mxGeometry x="600" y="605" width="100" height="20" as="geometry"/>
                </mxCell>
                <mxCell id="43" value="" style="edgeStyle=none;html=1;" parent="1" source="42" target="37" edge="1">
                    <mxGeometry relative="1" as="geometry"/>
                </mxCell>
                <mxCell id="42" value="" style="shape=crossbar;whiteSpace=wrap;html=1;rounded=1;" parent="1" vertex="1">
                    <mxGeometry x="140" y="605" width="70" height="20" as="geometry"/>
                </mxCell>
                <mxCell id="46" value="img 6" style="whiteSpace=wrap;html=1;aspect=fixed;" parent="1" vertex="1">
                    <mxGeometry x="210.00000000000003" y="760" width="150" height="150" as="geometry"/>
                </mxCell>
                <mxCell id="47" value="img 5" style="whiteSpace=wrap;html=1;aspect=fixed;" parent="1" vertex="1">
                    <mxGeometry x="-9.999999999999972" y="760" width="150" height="150" as="geometry"/>
                </mxCell>
                <mxCell id="48" value="img 7" style="whiteSpace=wrap;html=1;aspect=fixed;" parent="1" vertex="1">
                    <mxGeometry x="450" y="760" width="150" height="150" as="geometry"/>
                </mxCell>
                <mxCell id="49" value="img 8" style="whiteSpace=wrap;html=1;aspect=fixed;" parent="1" vertex="1">
                    <mxGeometry x="700" y="760" width="150" height="150" as="geometry"/>
                </mxCell>
                <mxCell id="50" value="" style="shape=crossbar;whiteSpace=wrap;html=1;rounded=1;" parent="1" vertex="1">
                    <mxGeometry x="360" y="816.88" width="90" height="20" as="geometry"/>
                </mxCell>
                <mxCell id="52" value="" style="shape=crossbar;whiteSpace=wrap;html=1;rounded=1;" parent="1" vertex="1">
                    <mxGeometry x="600" y="816.88" width="100" height="20" as="geometry"/>
                </mxCell>
                <mxCell id="53" value="" style="shape=crossbar;whiteSpace=wrap;html=1;rounded=1;" parent="1" vertex="1">
                    <mxGeometry x="140" y="825" width="70" height="20" as="geometry"/>
                </mxCell>
                <mxCell id="54" value="" style="shape=curlyBracket;whiteSpace=wrap;html=1;rounded=1;flipH=1;labelPosition=right;verticalLabelPosition=middle;align=left;verticalAlign=middle;size=0.5;rotation=90;" parent="1" vertex="1">
                    <mxGeometry x="356.38" y="593.13" width="136.09" height="766.25" as="geometry"/>
                </mxCell>
                <mxCell id="56" value="&lt;h1&gt;&lt;span style=&quot;font-weight: normal;&quot;&gt;&lt;font color=&quot;#030303&quot;&gt;Text 2&lt;/font&gt;&lt;/span&gt;&lt;/h1&gt;" style="rounded=0;whiteSpace=wrap;html=1;fillColor=#fff2cc;strokeColor=#d6b656;" parent="1" vertex="1">
                    <mxGeometry x="69.43" y="1040" width="710" height="60" as="geometry"/>
                </mxCell>
                <mxCell id="57" value="&lt;h2&gt;&lt;font color=&quot;#000000&quot; style=&quot;font-size: 20px;&quot;&gt;footer&lt;/font&gt;&lt;/h2&gt;" style="rounded=0;whiteSpace=wrap;html=1;fillColor=#6d8764;fontColor=#ffffff;strokeColor=#3A5431;" parent="1" vertex="1">
                    <mxGeometry x="240" y="1150" width="390" height="60" as="geometry"/>
                </mxCell>
                <mxCell id="59" value="" style="shape=crossbar;whiteSpace=wrap;html=1;rounded=1;rotation=90;" parent="1" vertex="1">
                    <mxGeometry x="408.12" y="1115.64" width="48.71" height="20" as="geometry"/>
                </mxCell>
                <mxCell id="60" value="arial, 12 black, white padding, orange background" style="rounded=0;whiteSpace=wrap;html=1;fontSize=20;fontColor=#333333;fillColor=#f5f5f5;strokeColor=#666666;" parent="1" vertex="1">
                    <mxGeometry x="539.43" y="50" width="240" height="83.12" as="geometry"/>
                </mxCell>
                <mxCell id="61" value="arial, 80 white, green padding, green background" style="rounded=0;whiteSpace=wrap;html=1;fontSize=20;fontColor=#333333;fillColor=#f5f5f5;strokeColor=#666666;" parent="1" vertex="1">
                    <mxGeometry x="539.43" y="190" width="240" height="83.12" as="geometry"/>
                </mxCell>
                <mxCell id="62" value="arial, 14 black,&amp;nbsp; 15&amp;nbsp; padding yellow&lt;span style=&quot;color: rgba(0, 0, 0, 0); font-family: monospace; font-size: 0px; text-align: start;&quot;&gt;%3CmxGraphModel%3E%3Croot%3E%3CmxCell%20id%3D%220%22%2F%3E%3CmxCell%20id%3D%221%22%20parent%3D%220%22%2F%3E%3CmxCell%20id%3D%222%22%20value%3D%22arial%2C%2012%20black%2C%20white%20padding%2C%20orange%20background%22%20style%3D%22rounded%3D0%3BwhiteSpace%3Dwrap%3Bhtml%3D1%3BfontSize%3D20%3BfontColor%3D%23333333%3BfillColor%3D%23f5f5f5%3BstrokeColor%3D%23666666%3B%22%20vertex%3D%221%22%20parent%3D%221%22%3E%3CmxGeometry%20x%3D%22570%22%20y%3D%2238.44%22%20width%3D%22240%22%20height%3D%2283.12%22%20as%3D%22geometry%22%2F%3E%3C%2FmxCell%3E%3C%2Froot%3E%3C%2FmxGraphModel%3E&lt;/span&gt;&lt;br&gt;&amp;nbsp;background" style="rounded=0;whiteSpace=wrap;html=1;fontSize=20;fontColor=#333333;fillColor=#f5f5f5;strokeColor=#666666;" parent="1" vertex="1">
                    <mxGeometry x="539.43" y="326.88" width="240" height="83.12" as="geometry"/>
                </mxCell>
                <mxCell id="63" value="arial, 14 black,&amp;nbsp; 15&amp;nbsp; padding yellow&lt;span style=&quot;color: rgba(0, 0, 0, 0); font-family: monospace; font-size: 0px; text-align: start;&quot;&gt;%3CmxGraphModel%3E%3Croot%3E%3CmxCell%20id%3D%220%22%2F%3E%3CmxCell%20id%3D%221%22%20parent%3D%220%22%2F%3E%3CmxCell%20id%3D%222%22%20value%3D%22arial%2C%2012%20black%2C%20white%20padding%2C%20orange%20background%22%20style%3D%22rounded%3D0%3BwhiteSpace%3Dwrap%3Bhtml%3D1%3BfontSize%3D20%3BfontColor%3D%23333333%3BfillColor%3D%23f5f5f5%3BstrokeColor%3D%23666666%3B%22%20vertex%3D%221%22%20parent%3D%221%22%3E%3CmxGeometry%20x%3D%22570%22%20y%3D%2238.44%22%20width%3D%22240%22%20height%3D%2283.12%22%20as%3D%22geometry%22%2F%3E%3C%2FmxCell%3E%3C%2Froot%3E%3C%2FmxGraphModel%3E&lt;/span&gt;&lt;br&gt;&amp;nbsp;background" style="rounded=0;whiteSpace=wrap;html=1;fontSize=20;fontColor=#333333;fillColor=#f5f5f5;strokeColor=#666666;" parent="1" vertex="1">
                    <mxGeometry x="539.43" y="450" width="240" height="83.12" as="geometry"/>
                </mxCell>
                <mxCell id="64" value="arial, 19 black,&amp;nbsp; 15&amp;nbsp; padding yellow&lt;span style=&quot;color: rgba(0, 0, 0, 0); font-family: monospace; font-size: 0px; text-align: start;&quot;&gt;%3CmxGraphModel%3E%3Croot%3E%3CmxCell%20id%3D%220%22%2F%3E%3CmxCell%20id%3D%221%22%20parent%3D%220%22%2F%3E%3CmxCell%20id%3D%222%22%20value%3D%22arial%2C%2012%20black%2C%20white%20padding%2C%20orange%20background%22%20style%3D%22rounded%3D0%3BwhiteSpace%3Dwrap%3Bhtml%3D1%3BfontSize%3D20%3BfontColor%3D%23333333%3BfillColor%3D%23f5f5f5%3BstrokeColor%3D%23666666%3B%22%20vertex%3D%221%22%20parent%3D%221%22%3E%3CmxGeometry%20x%3D%22570%22%20y%3D%2238.44%22%20width%3D%22240%22%20height%3D%2283.12%22%20as%3D%22geometry%22%2F%3E%3C%2FmxCell%3E%3C%2Froot%3E%3C%2FmxGraphModel%3E&lt;/span&gt;&lt;br&gt;&amp;nbsp;background" style="rounded=0;whiteSpace=wrap;html=1;fontSize=20;fontColor=#333333;fillColor=#f5f5f5;strokeColor=#666666;" vertex="1" parent="1">
                    <mxGeometry x="610" y="980" width="240" height="83.12" as="geometry"/>
                </mxCell>
                <mxCell id="65" value="arial, 14 black,&amp;nbsp; 15&amp;nbsp; padding green&lt;span style=&quot;color: rgba(0, 0, 0, 0); font-family: monospace; font-size: 0px; text-align: start;&quot;&gt;%3CmxGraphModel%3E%3Croot%3E%3CmxCell%20id%3D%220%22%2F%3E%3CmxCell%20id%3D%221%22%20parent%3D%220%22%2F%3E%3CmxCell%20id%3D%222%22%20value%3D%22arial%2C%2012%20black%2C%20white%20padding%2C%20orange%20background%22%20style%3D%22rounded%3D0%3BwhiteSpace%3Dwrap%3Bhtml%3D1%3BfontSize%3D20%3BfontColor%3D%23333333%3BfillColor%3D%23f5f5f5%3BstrokeColor%3D%23666666%3B%22%20vertex%3D%221%22%20parent%3D%221%22%3E%3CmxGeometry%20x%3D%22570%22%20y%3D%2238.44%22%20width%3D%22240%22%20height%3D%2283.12%22%20as%3D%22geometry%22%2F%3E%3C%2FmxCell%3E%3C%2Froot%3E%3C%2FmxGraphModel%3E&lt;/span&gt;&lt;br&gt;&amp;nbsp;background" style="rounded=0;whiteSpace=wrap;html=1;fontSize=20;fontColor=#333333;fillColor=#f5f5f5;strokeColor=#666666;" vertex="1" parent="1">
                    <mxGeometry x="560" y="1115.64" width="240" height="83.12" as="geometry"/>
                </mxCell>
            </root>
        </mxGraphModel>
    </diagram>
</mxfile>